<svg xmlns="http://www.w3.org/2000/svg" xmlns:svg="http://www.w3.org/2000/svg" id="svg2" width="48" height="48" version="1.1" viewBox="0 0 48 48"><metadata id="metadata7"/><g id="layer1" display="inline" transform="translate(-384,-1004.3622)"><path id="path8583" fill="#747474" fill-opacity="1" fill-rule="evenodd" stroke="none" stroke-linecap="butt" stroke-linejoin="miter" stroke-opacity="1" stroke-width="1" d="m 388.00001,1020.3623 h 4 l 8,-8 h 4 v 32 h -4 l -8,-8 h -4 z" display="inline"/><path id="path14006" fill="#fafafa" fill-opacity="1" fill-rule="evenodd" stroke="none" stroke-dasharray="none" stroke-dashoffset="4.2" stroke-linecap="butt" stroke-linejoin="round" stroke-miterlimit="4" stroke-opacity="1" stroke-width="2" d="m 409.05081,1019.1689 -4.2442,4.2442 4.9512,4.9492 -4.9512,4.9492 4.2442,4.2442 4.9492,-4.9512 4.9492,4.9512 4.2442,-4.2442 -4.9512,-4.9492 4.9512,-4.9492 -4.2442,-4.2442 -4.9492,4.9512 z" color="#000" display="inline" enable-background="accumulate" opacity=".708" overflow="visible" visibility="visible" style="marker:none"/><path id="path8587" fill="red" fill-opacity="1" fill-rule="nonzero" stroke="none" stroke-dasharray="none" stroke-dashoffset="0" stroke-linecap="round" stroke-linejoin="round" stroke-miterlimit="4" stroke-opacity="1" stroke-width="6" d="m 414.00001,1014.3623 a 14,14 0 0 0 -10,4.207 v 19.5723 a 14,14 0 0 0 10,4.2207 14,14 0 0 0 14,-14 14,14 0 0 0 -14,-14 z m -4.9492,4.8066 4.9492,4.9512 4.9492,-4.9512 4.2442,4.2442 -4.9512,4.9492 4.9512,4.9492 -4.2442,4.2442 -4.9492,-4.9512 -4.9492,4.9512 -4.2442,-4.2442 4.9512,-4.9492 -4.9512,-4.9492 z" color="#000" display="inline" enable-background="accumulate" opacity="1" overflow="visible" visibility="visible" style="marker:none"/></g></svg>