<svg xmlns="http://www.w3.org/2000/svg" xmlns:svg="http://www.w3.org/2000/svg" id="svg2" width="48" height="48" version="1.1" viewBox="0 0 48 48"><metadata id="metadata7"/><g id="layer1" display="inline" transform="translate(-384,-1004.3622)"><path id="circle6298" fill="#ff950d" fill-opacity="1" fill-rule="evenodd" stroke="none" stroke-dasharray="none" stroke-dashoffset="0" stroke-linecap="round" stroke-linejoin="round" stroke-miterlimit="4" stroke-opacity="1" stroke-width="3.543" d="m 408.00001,1008.3621 a 20,20 0 0 0 -20,20 20,20 0 0 0 20,20 20,20 0 0 0 20,-20 20,20 0 0 0 -20,-20 z m -2.5,7.5 h 5 v 5 h -5 z m 0,7.5 h 5 l -0.0977,17.5 h -5 z" color="#000" display="inline" enable-background="accumulate" opacity="1" overflow="visible" visibility="visible" style="marker:none"/><g id="g4776" fill="#fafafa" fill-opacity="1" fill-rule="evenodd" stroke="none" display="inline" font-family="Bitstream Vera Sans" font-size="11.441" font-stretch="normal" font-style="normal" font-variant="normal" font-weight="bold" letter-spacing="0" text-anchor="start" transform="matrix(2.5,0,0,2.5,387.99998,1008.3621)" word-spacing="0" writing-mode="lr-tb" style="line-height:125%;-inkscape-font-specification:'Bitstream Vera Sans Bold';text-align:start"><path id="path4778" fill="#fafafa" fill-opacity="1" d="m 7,6 h 2 l -0.039106,7 h -2 L 7,6 M 7,3 H 9 V 5 H 7 V 3"/></g><g id="g6952" fill="#fafafa" fill-opacity="1" fill-rule="evenodd" stroke="none" display="inline" font-family="Bitstream Vera Sans" font-size="11.441" font-stretch="normal" font-style="normal" font-variant="normal" font-weight="bold" letter-spacing="0" text-anchor="start" transform="matrix(2.5,0,0,2.5,387.99998,1008.3621)" word-spacing="0" writing-mode="lr-tb" style="line-height:125%;-inkscape-font-specification:'Bitstream Vera Sans Bold';text-align:start"><path id="path6950" fill="#fafafa" fill-opacity="1" d="m 7,6 h 2 l -0.039106,7 h -2 L 7,6 M 7,3 H 9 V 5 H 7 V 3"/></g></g></svg>