<svg xmlns="http://www.w3.org/2000/svg" xmlns:svg="http://www.w3.org/2000/svg" id="svg5502" width="48" height="48" version="1.1" viewBox="0 0 48 48"><metadata id="metadata5499"/><g id="layer1" transform="translate(-96.459526,-120.56071)"><rect id="rect10848" width="10" height="10" x="128.46" y="126.561" fill="#ff950d" fill-opacity="1" fill-rule="evenodd" stroke="none" stroke-dasharray="none" stroke-dashoffset="4.2" stroke-linecap="butt" stroke-linejoin="round" stroke-miterlimit="4" stroke-opacity="1" stroke-width="6" color="#000" display="inline" enable-background="accumulate" opacity="1" overflow="visible" visibility="visible" style="marker:none"/><rect stroke-linejoin="round" style="marker:none" id="rect10854" width="10" height="10" x="115.46" y="-162.561" fill="#ff950d" fill-opacity="1" fill-rule="evenodd" stroke="none" stroke-dasharray="none" stroke-dashoffset="4.2" stroke-linecap="butt" stroke-miterlimit="4" stroke-opacity="1" stroke-width="6" color="#000" display="inline" enable-background="accumulate" opacity="1" overflow="visible" transform="scale(1,-1)" visibility="visible"/><rect id="rect6598" width="10" height="10" x="102.46" y="126.561" fill="#ff950d" fill-opacity="1" fill-rule="evenodd" stroke="none" stroke-dasharray="none" stroke-dashoffset="4.2" stroke-linecap="butt" stroke-linejoin="round" stroke-miterlimit="4" stroke-opacity="1" stroke-width="6" color="#000" display="inline" enable-background="accumulate" opacity="1" overflow="visible" visibility="visible" style="marker:none"/><path id="rect10832" fill="#747474" fill-opacity="1" fill-rule="evenodd" stroke="none" stroke-dasharray="none" stroke-dashoffset="4.2" stroke-linecap="butt" stroke-linejoin="round" stroke-miterlimit="4" stroke-opacity="1" stroke-width="6" d="m 100.45953,124.56071 v 14 h 5.49998 v 3 h -5.49998 v 6 h 18.50002 v 3 h -5.50002 v 14 h 14 v -14 h -5.49998 v -3 h 18.49998 v -6 h -5.50001 v -3 h 5.50001 v -14 h -13.99999 v 14 h 5.49997 v 3 h -23 v -3 h 5.50005 v -14 z m 1.99998,2.00001 h 10.00004 v 9.99998 h -10.00004 z m 26,0 h 10.00004 v 9.99998 h -10.00004 z m -12.99996,26 h 9.99996 v 9.99998 h -9.99996 z" color="#000" display="inline" enable-background="accumulate" opacity="1" overflow="visible" visibility="visible" style="marker:none"/></g></svg>