<svg xmlns="http://www.w3.org/2000/svg" xmlns:svg="http://www.w3.org/2000/svg" id="svg5502" width="48" height="48" version="1.1" viewBox="0 0 48 48"><metadata id="metadata5499"/><g id="layer1" transform="translate(-96.459526,-120.56071)"><path id="path10447" fill="#ff950d" fill-opacity="1" fill-rule="evenodd" stroke="none" stroke-dasharray="none" stroke-dashoffset="4.2" stroke-linecap="butt" stroke-linejoin="round" stroke-miterlimit="4" stroke-opacity="1" stroke-width="3" d="m 120.45941,124.50971 a 20.999788,21.000113 0 0 0 -1.00001,0.0507 v 2.9844 a 17.999819,18.000097 0 0 1 1.00001,-0.034 17.999819,18.000097 0 0 1 17.29865,13.05089 h 3.08395 a 20.999788,21.000113 0 0 0 -20.3826,-16.05087 z m 0,6.00003 a 14.999849,15.000077 0 0 0 -1.00001,0.0488 v 2.99805 a 11.999882,12.000065 0 0 1 1.00001,-0.0469 11.999882,12.000065 0 0 1 10.91589,7.0509 h 3.22655 a 14.999849,15.000077 0 0 0 -14.14244,-10.05084 z m 0,6.00003 a 8.9999123,9.0000485 0 0 0 -1.00001,0.0605 v 3.02541 a 5.9999361,6.0000323 0 0 1 1.00001,-0.0858 5.9999361,6.0000323 0 0 1 3.39058,1.05079 h 4.11912 a 8.9999123,9.0000485 0 0 0 -7.5097,-4.05077 z m -20.37088,12.05083 a 20.999788,21.000113 0 0 0 20.37088,16.00011 20.999788,21.000113 0 0 0 0.99998,-0.0506 v -2.9844 a 17.999819,18.000097 0 0 1 -0.99998,0.034 17.999819,18.000097 0 0 1 -17.28107,-13.00005 z m 6.24795,0 a 14.999849,15.000077 0 0 0 14.12293,10.00008 14.999849,15.000077 0 0 0 0.99998,-0.0488 v -2.99805 a 11.999882,12.000065 0 0 1 -0.99998,0.0469 11.999882,12.000065 0 0 1 -10.89249,-7.00003 z m 6.64446,0 a 8.9999123,9.0000485 0 0 0 7.47847,4.00005 8.9999123,9.0000485 0 0 0 0.99998,-0.0605 v -3.02541 a 5.9999361,6.0000323 0 0 1 -0.99998,0.0858 5.9999361,6.0000323 0 0 1 -3.30856,-0.99999 z" color="#000" display="inline" enable-background="accumulate" opacity="1" overflow="visible" visibility="visible" style="marker:none"/><text id="text10460" x="100.14" y="149.714" fill="#757575" fill-opacity="1" stroke="none" stroke-linecap="butt" stroke-linejoin="miter" stroke-opacity="1" stroke-width="1" display="inline" font-family="Raleway" font-size="12" font-stretch="normal" font-style="normal" font-variant="normal" font-weight="normal" letter-spacing="0" text-anchor="start" transform="scale(0.99999226,1.0000077)" word-spacing="0" writing-mode="lr-tb" xml:space="preserve" style="line-height:0%;-inkscape-font-specification:'Raleway, Normal';text-align:start"><tspan id="tspan10462" x="100.14" y="149.714" fill="#757575" fill-opacity="1" stroke-width="1" font-family="Raleway" font-size="14.56" font-stretch="normal" font-style="normal" font-variant="normal" font-weight="900" style="line-height:1.25;-inkscape-font-specification:'Raleway Heavy'">CHAN</tspan></text></g></svg>