<svg xmlns="http://www.w3.org/2000/svg" xmlns:svg="http://www.w3.org/2000/svg" id="svg2" width="48" height="48" version="1.1" viewBox="0 0 48 48"><metadata id="metadata27"/><g id="surface1" transform="matrix(1.0086322,0,0,1.0086322,-0.0359449,-0.31782068)"><path id="path5" fill="#000" fill-opacity="1" fill-rule="nonzero" stroke="none" d="m 12.109375,11.214844 c 0,0.457031 -0.371094,0.832031 -0.832031,0.832031 l -6.28125,0 c -0.460938,0 -0.832032,-0.375 -0.832032,-0.832031 l 0,-6.28125 c 0,-0.460938 0.371094,-0.835938 0.832032,-0.835938 l 6.28125,0 c 0.460937,0 0.832031,0.375 0.832031,0.835938 z m 0,0"/><path id="path7" fill="#000" fill-opacity="1" fill-rule="nonzero" stroke="none" d="m 28.03125,11.214844 c 0,0.457031 -0.375,0.832031 -0.832031,0.832031 l -6.28125,0 c -0.460938,0 -0.835938,-0.375 -0.835938,-0.832031 l 0,-6.28125 c 0,-0.460938 0.375,-0.835938 0.835938,-0.835938 l 6.28125,0 c 0.457031,0 0.832031,0.375 0.832031,0.835938 z m 0,0"/><path id="path9" fill="#000" fill-opacity="1" fill-rule="nonzero" stroke="none" d="m 43.953125,11.214844 c 0,0.457031 -0.375,0.832031 -0.835937,0.832031 l -6.28125,0 c -0.460938,0 -0.832032,-0.375 -0.832032,-0.832031 l 0,-6.28125 c 0,-0.460938 0.371094,-0.835938 0.832032,-0.835938 l 6.28125,0 c 0.460937,0 0.835937,0.375 0.835937,0.835938 z m 0,0"/><path id="path11" fill="#000" fill-opacity="1" fill-rule="nonzero" stroke="none" d="m 12.109375,27.132812 c 0,0.460938 -0.371094,0.835938 -0.832031,0.835938 l -6.28125,0 c -0.460938,0 -0.832032,-0.375 -0.832032,-0.835938 l 0,-6.28125 c 0,-0.460937 0.371094,-0.832031 0.832032,-0.832031 l 6.28125,0 c 0.460937,0 0.832031,0.371094 0.832031,0.832031 z m 0,0"/><path id="path13" fill="#000" fill-opacity="1" fill-rule="nonzero" stroke="none" d="m 28.03125,27.132812 c 0,0.460938 -0.375,0.835938 -0.832031,0.835938 l -6.28125,0 c -0.460938,0 -0.835938,-0.375 -0.835938,-0.835938 l 0,-6.28125 c 0,-0.460937 0.375,-0.832031 0.835938,-0.832031 l 6.28125,0 c 0.457031,0 0.832031,0.371094 0.832031,0.832031 z m 0,0"/><path id="path15" fill="#000" fill-opacity="1" fill-rule="nonzero" stroke="none" d="m 43.953125,27.132812 c 0,0.460938 -0.375,0.835938 -0.835937,0.835938 l -6.28125,0 c -0.460938,0 -0.832032,-0.375 -0.832032,-0.835938 l 0,-6.28125 c 0,-0.460937 0.371094,-0.832031 0.832032,-0.832031 l 6.28125,0 c 0.460937,0 0.835937,0.371094 0.835937,0.832031 z m 0,0"/><path id="path17" fill="#000" fill-opacity="1" fill-rule="nonzero" stroke="none" d="m 12.109375,43.054688 c 0,0.460937 -0.371094,0.832031 -0.832031,0.832031 l -6.28125,0 c -0.460938,0 -0.832032,-0.371094 -0.832032,-0.832031 l 0,-6.28125 c 0,-0.460938 0.371094,-0.832032 0.832032,-0.832032 l 6.28125,0 c 0.460937,0 0.832031,0.371094 0.832031,0.832032 z m 0,0"/><path id="path19" fill="#000" fill-opacity="1" fill-rule="nonzero" stroke="none" d="m 28.03125,43.054688 c 0,0.460937 -0.375,0.832031 -0.832031,0.832031 l -6.28125,0 c -0.460938,0 -0.835938,-0.371094 -0.835938,-0.832031 l 0,-6.28125 c 0,-0.460938 0.375,-0.832032 0.835938,-0.832032 l 6.28125,0 c 0.457031,0 0.832031,0.371094 0.832031,0.832032 z m 0,0"/><path id="path21" fill="#000" fill-opacity="1" fill-rule="nonzero" stroke="none" d="m 43.953125,43.054688 c 0,0.460937 -0.375,0.832031 -0.835937,0.832031 l -6.28125,0 c -0.460938,0 -0.832032,-0.371094 -0.832032,-0.832031 l 0,-6.28125 c 0,-0.460938 0.371094,-0.832032 0.832032,-0.832032 l 6.28125,0 c 0.460937,0 0.835937,0.371094 0.835937,0.832032 z m 0,0"/></g></svg>