<svg xmlns="http://www.w3.org/2000/svg" xmlns:svg="http://www.w3.org/2000/svg" id="svg2" width="48" height="48" version="1.1" viewBox="0 0 48 48"><metadata id="metadata7"/><g id="layer1" display="inline" transform="translate(-384,-1004.3622)"><rect id="rect7080-3" width="12" height="8.5" x="395" y="1019.362" fill="#ff950d" fill-opacity="1" fill-rule="evenodd" stroke="none" stroke-dasharray="none" stroke-dashoffset="4.2" stroke-linecap="butt" stroke-linejoin="round" stroke-miterlimit="4" stroke-opacity="1" stroke-width="6.733" color="#000" display="inline" enable-background="accumulate" opacity="1" overflow="visible" visibility="visible" style="marker:none"/><rect id="rect7082-3" width="8" height="3" x="410" y="1019.362" fill="#ff950d" fill-opacity="1" fill-rule="evenodd" stroke="none" stroke-dasharray="none" stroke-dashoffset="4.2" stroke-linecap="butt" stroke-linejoin="round" stroke-miterlimit="4" stroke-opacity="1" stroke-width="5.657" color="#000" display="inline" enable-background="accumulate" opacity="1" overflow="visible" visibility="visible" style="marker:none"/><rect id="rect7084-7" width="12" height="3" x="395" y="1030.362" fill="#ff950d" fill-opacity="1" fill-rule="evenodd" stroke="none" stroke-dasharray="none" stroke-dashoffset="4.2" stroke-linecap="butt" stroke-linejoin="round" stroke-miterlimit="4" stroke-opacity="1" stroke-width="6.928" color="#000" display="inline" enable-background="accumulate" opacity="1" overflow="visible" visibility="visible" style="marker:none"/><rect id="rect7090-6" width="8" height="3" x="410" y="1024.862" fill="#ff950d" fill-opacity="1" fill-rule="evenodd" stroke="none" stroke-dasharray="none" stroke-dashoffset="4.2" stroke-linecap="butt" stroke-linejoin="round" stroke-miterlimit="4" stroke-opacity="1" stroke-width="5.657" color="#000" display="inline" enable-background="accumulate" opacity="1" overflow="visible" visibility="visible" style="marker:none"/><rect id="rect7092-3" width="8" height="3" x="410" y="1030.362" fill="#ff950d" fill-opacity="1" fill-rule="evenodd" stroke="none" stroke-dasharray="none" stroke-dashoffset="4.2" stroke-linecap="butt" stroke-linejoin="round" stroke-miterlimit="4" stroke-opacity="1" stroke-width="5.657" color="#000" display="inline" enable-background="accumulate" opacity="1" overflow="visible" visibility="visible" style="marker:none"/><path id="path7094-6" fill="#747474" fill-opacity="1" fill-rule="evenodd" stroke="none" stroke-dasharray="none" stroke-dashoffset="4.2" stroke-linecap="butt" stroke-linejoin="round" stroke-miterlimit="4" stroke-opacity="1" stroke-width="6" d="m 424.99999,1008.3622 -4,4 h -33 v 28 h 9 v -4 h -5 v -20 h 29 v 20 h -12 v 4 h 12 v 4 h 4 v -3 -3 h 3 v -7 h -3 v -4 h 3 v -6 h -3 v -8 l 2,-2 h 1 v -3 z m -13,32 h -18 v 4 h 18 z" color="#000" display="inline" enable-background="accumulate" opacity="1" overflow="visible" visibility="visible" style="marker:none"/><path id="path6534-9" fill="#747474" fill-opacity="1" fill-rule="evenodd" stroke="none" stroke-dasharray="none" stroke-dashoffset="4.2" stroke-linecap="butt" stroke-linejoin="round" stroke-miterlimit="4" stroke-opacity="1" stroke-width="6" d="m 424.99999,1008.3622 -4,4 h -33 v 28 h 9 v -4 h -5 v -20 h 29 v 20 h -12 v 4 h 12 v 4 h 4 v -3 -3 h 3 v -7 h -3 v -4 h 3 v -6 h -3 v -8 l 2,-2 h 1 v -3 z m -13,32 h -18 v 4 h 18 z" color="#000" display="inline" enable-background="accumulate" opacity="1" overflow="visible" visibility="visible" style="marker:none"/><path id="rect14015" fill="#fafafa" fill-opacity="1" fill-rule="evenodd" stroke="none" stroke-dasharray="none" stroke-dashoffset="4.2" stroke-linecap="butt" stroke-linejoin="round" stroke-miterlimit="4" stroke-opacity="1" stroke-width="2" d="m 391.99999,1016.3622 v 20 h 5 v 4 h 12 v -4 h 12 v -20 z m 3,3 h 12 v 8.5 h -12 z m 15,0 h 8 v 3 h -8 z m 0,5.5 h 8 v 3 h -8 z m -15,5.5 h 12 v 3 h -12 z m 15,0 h 8 v 3 h -8 z" color="#000" display="inline" enable-background="accumulate" opacity="1" overflow="visible" visibility="visible" style="marker:none"/></g></svg>