<svg xmlns="http://www.w3.org/2000/svg" xmlns:svg="http://www.w3.org/2000/svg" id="svg2" width="48" height="48" version="1.1" viewBox="0 0 48 48"><metadata id="metadata7"/><g id="layer1" display="inline" transform="translate(-384,-1004.3622)"><circle id="path11084" cx="398" cy="1028.362" r="6" fill="#ff950d" fill-opacity="1" fill-rule="evenodd" stroke="none" stroke-dasharray="none" stroke-dashoffset="4.2" stroke-linecap="butt" stroke-linejoin="round" stroke-miterlimit="4" stroke-opacity="1" stroke-width="4" color="#000" display="inline" enable-background="accumulate" opacity="1" overflow="visible" visibility="visible" style="marker:none"/><circle id="path11087" cx="418" cy="1028.362" r="6" fill="#ff950d" fill-opacity="1" fill-rule="evenodd" stroke="none" stroke-dasharray="none" stroke-dashoffset="4.2" stroke-linecap="butt" stroke-linejoin="round" stroke-miterlimit="4" stroke-opacity="1" stroke-width="4" color="#000" display="inline" enable-background="accumulate" opacity="1" overflow="visible" visibility="visible" style="marker:none"/><path id="rect11089" fill="#747474" fill-opacity="1" fill-rule="evenodd" stroke="none" stroke-dasharray="none" stroke-dashoffset="4.2" stroke-linecap="butt" stroke-linejoin="round" stroke-miterlimit="4" stroke-opacity="1" stroke-width="4" d="m 428,1044.3621 v -32 h -40 v 32 z m -34,-29 h 28 l -4,4 h -20 z m 4,7 c 3.31371,0 6,2.6863 6,6 0,3.3137 -2.68629,6 -6,6 -3.31371,0 -6,-2.6863 -6,-6 0,-3.3137 2.68629,-6 6,-6 z m 20,0 c 3.31371,0 6,2.6863 6,6 0,3.3137 -2.68629,6 -6,6 -3.31371,0 -6,-2.6863 -6,-6 0,-3.3137 2.68629,-6 6,-6 z m -20,16 h 20 v 4 h -20 z" color="#000" display="inline" enable-background="accumulate" opacity="1" overflow="visible" visibility="visible" style="marker:none"/></g></svg>