<svg xmlns="http://www.w3.org/2000/svg" xmlns:svg="http://www.w3.org/2000/svg" id="svg2" width="48" height="48" version="1.1" viewBox="0 0 48 48"><metadata id="metadata7"/><g id="layer1" display="inline" transform="translate(-384,-1004.3622)"><path id="path9959-7" fill="#ff950d" fill-opacity="1" fill-rule="nonzero" stroke="none" stroke-dasharray="none" stroke-dashoffset="0" stroke-linecap="round" stroke-linejoin="round" stroke-miterlimit="4" stroke-opacity="1" stroke-width="1.811" d="m 400,1023.3621 v 3.4996 l 20,-3e-4 v -3.4997 z" color="#000" display="inline" enable-background="accumulate" opacity="1" overflow="visible" visibility="visible" style="marker:none"/><path id="path9961-2" fill="#ff950d" fill-opacity="1" fill-rule="nonzero" stroke="none" stroke-dasharray="none" stroke-dashoffset="0" stroke-linecap="round" stroke-linejoin="round" stroke-miterlimit="4" stroke-opacity="1" stroke-width="1.811" d="m 400,1029.3621 v 3.4996 l 20,-3e-4 v -3.4997 z" color="#000" display="inline" enable-background="accumulate" opacity="1" overflow="visible" visibility="visible" style="marker:none"/><path id="path9963-4" fill="#ff950d" fill-opacity="1" fill-rule="nonzero" stroke="none" stroke-dasharray="none" stroke-dashoffset="0" stroke-linecap="round" stroke-linejoin="round" stroke-miterlimit="4" stroke-opacity="1" stroke-width="1.708" d="m 400,1035.3621 v 3.4996 l 10,-3e-4 v -3.4997 z" color="#000" display="inline" enable-background="accumulate" opacity="1" overflow="visible" visibility="visible" style="marker:none"/><path id="path9965-9" fill="#ff950d" fill-opacity="1" fill-rule="evenodd" stroke="none" stroke-dasharray="none" stroke-dashoffset="0" stroke-linecap="round" stroke-linejoin="round" stroke-miterlimit="4" stroke-opacity="1" stroke-width="100" d="m -32,654.5058 8,13.85641 -16,0 z" color="#000" display="inline" enable-background="accumulate" opacity="1" overflow="visible" transform="matrix(0,0.50000001,-0.4871393,0,739.5855,1054.3621)" visibility="visible" style="marker:none"/><path id="path11926-2" fill="#747474" fill-opacity="1" stroke-width="2" d="m 395.99998,1008.3621 c -2.2,0 -3.98047,1.8 -3.98047,4 l -0.0195,32 c 0,2.2 1.78047,4 3.98047,4 h 28.0195 c 2.2,0 3.98273,-1.8001 4,-4 v -24 l -12,-12 z m -1,3 h 19 2 v 9 h 9 v 2 23 h -30 z" display="inline"/></g></svg>